<?xml version="1.0" encoding="utf-8"?>
<svg viewBox="0 0 312.5 314.5557098610986" xmlns="http://www.w3.org/2000/svg">
  <g id="SvgjsG2240" featurekey="rootContainer" transform="matrix(1.6911404132843018, 0, 0, 1.6911404132843018, -1.4210854715202004e-14, -0.003824015613645315)" fill="#ffa3ac">
    <path xmlns="http://www.w3.org/2000/svg" d="M27.983 157.03c-.229-.339-.566-.793-.807-1.141.235.361.5.733.807 1.141zM4.683 107.878l.737 2.899c.321 4.445 1.616 8.985 3.339 13.311l-.321-2.065c-.455-1.248-.655-1.961-.77-2.046-.066-.066-.067.191.039.762-1.095-5-2.027-9.749-2.751-14.651-.142.348-.378.31-.273 1.79zM4.53 102.939l-.003.111.428 3.037c.017-.025.03-.076.046-.117l-.471-3.031z" style="fill: rgb(255, 233, 163);"/>
    <path xmlns="http://www.w3.org/2000/svg" d="M125.305 180.632l2.14-.828c1.441-.523 2.834-1.169 4.24-1.796a89.147 89.147 0 0 0 15.754-9.223c8.046-5.915 15.007-13.019 20.571-21.02 5.631-7.96 9.858-16.8 12.735-26.093 5.643-18.619 5.519-39.248-1.271-59.004-7.467-21.375-22.25-39.15-40.75-50.155a88.724 88.724 0 0 0-14.361-6.919c-1.246-.435-2.474-.92-3.73-1.308l-3.772-1.139-3.814-.942c-1.271-.307-2.562-.513-3.84-.772A92.651 92.651 0 0 0 93.706.004C88.524-.03 83.364.436 78.26 1.256l-1.912.329c-.639.102-1.275.219-1.904.373l-3.79.855-3.749 1.04c-1.251.347-2.471.8-3.709 1.195a97.388 97.388 0 0 0-14.362 6.284c-9.278 4.997-17.84 11.635-25.396 19.672-2.922 3.069-6.091 7.155-9.102 11.873a91.038 91.038 0 0 0-7.949 15.747c-2.195 5.611-3.793 11.426-4.808 16.85C.523 80.897.165 85.935 0 90.012c.037 1.37.072 2.609.143 3.725.109 1.116.221 2.11.337 2.993.201 1.769.548 3.087.831 4.056.582 1.937 1.104 2.47 1.544 2.316.88-.321 1.444-3.343 1.493-3.832.444-3.247.812-6.255 1.18-9.364.156-1.555.428-3.127.601-4.769.222-1.637.511-3.331.778-5.127.685-3.568 1.468-7.541 2.949-12.042a77.254 77.254 0 0 1 6.311-14.233c-.334.587-.633 1.102-.892 1.54-.366.633-.62 1.132-.834 1.479-.415.697-.575.828-.519.499.061-.326.313-1.124.78-2.251.508-1.106 1.148-2.584 2.026-4.239 1.729-3.325 4.328-7.402 7.395-11.229.79-.938 1.536-1.919 2.376-2.808.833-.895 1.656-1.784 2.482-2.634.862-.819 1.71-1.614 2.537-2.371.82-.764 1.695-1.415 2.491-2.061 4.72-3.62 9.981-7.44 15.965-10.789 1.504-.821 3.001-1.698 4.589-2.451.789-.386 1.564-.809 2.372-1.178l2.441-1.097a36.112 36.112 0 0 1 2.491-1.047l2.532-1.009 2.597-.895 1.304-.454 1.329-.391 2.67-.785c.9-.235 1.811-.438 2.718-.662 1.808-.485 3.669-.758 5.514-1.127 3.718-.574 7.486-1.021 11.257-1.089 3.769-.163 7.528.083 11.221.454 1.835.279 3.677.456 5.466.861l2.681.545 2.623.687 1.31.342 1.304.403 2.645.806 2.66.934 1.352.472 1.343.542c3.63 1.378 7.285 3.177 11.017 5.305 19.107 11.478 33.218 29.389 39.781 50.132a90.291 90.291 0 0 1 4.012 32.602c-.686 11.153-3.564 22.415-8.801 32.918-5.51 11.128-12.028 20.167-19.705 27.471-1.4 1.334-2.956 2.539-4.491 3.756-.769.606-1.589 1.144-2.376 1.711-.793.561-1.579 1.121-2.397 1.611l-2.389 1.497c-.795.473-1.598.901-2.368 1.341-1.527.904-3.06 1.619-4.444 2.351a104.836 104.836 0 0 1-12.79 5.354 104.644 104.644 0 0 1-12.205 3.209c8.975-1.655 15.399-3.714 24.498-8.151 2.984-1.578 2.055-.842-.136.574-1.126.644-2.563 1.475-3.999 2.22-1.457.693-2.876 1.387-3.923 1.82-.892.385-2.124.643-3.346.898-1.226.25-2.471.402-3.374.753l-1.497.436-1.491.381-2.964.797c-2.005.443-4.042.994-6.286 1.318-1.914.381-1.759-.299-2.712-.15-6.085.727-10.902 1.426-14.852.924l-2.188-.26c-.712-.094-1.404-.235-2.086-.347-1.364-.237-2.683-.449-3.964-.772l-2.456-.505c-.824-.174-1.649-.397-2.511-.582-1.076-.197-2.198-.393-3.297-.68-7.955-1.794-16.87-5.311-24.414-9.955l.066.116c4.075 2.556 8.177 4.843 12.584 7.158-.295-.185-.404-.298-.333-.301.13-.015.817.249 2.06.712l1.758 1.083c-4.404-1.447-8.672-3.39-12.233-5.99l-2.673-1.309c-1.18-.885-1.006-1.029-1.163-1.352-.844-.552-1.734-1.06-2.572-1.65.378.4 1.031.916 1.77 1.51.745.584 1.569 1.258 2.377 1.835l3.055 2.098c11.553 6.4 23.744 9.945 35.831 11.02.942-.071 1.598-.125 2.845-.005.938.149 1.892.256 2.838.336.887.052 1.774.033 2.659.02l2.648-.033c.615-.025 1.234-.113 1.863-.17l.051-.007c.988-.149.684-.233.066-.291a28.331 28.331 0 0 1-1.463-.091c.427.027 1.024.047 1.463.091.837.028 1.77.03 2.858-.008a139.13 139.13 0 0 1 2.047-.284c-.519.077-1.045.158-1.574.24-.157.015-.322.032-.474.044l-2.358.243-.028.003h.007l-.596.061-.857.124c2.022-.137 4.043-.217 6.044-.493 1.001-.127 2.009-.205 3.004-.371l2.985-.5a29.793 29.793 0 0 0 2.474-.57c2.847-.687 5.596-1.626 7.434-1.8l2.061-.679-.415.076.792-.201c.718-.252 1.454-.461 2.165-.742zm20.262-11.197l4.091-2.674c-1.352 1.317-2.77 2.32-4.116 3.199-.667.447-1.331.844-2 1.181a70.11 70.11 0 0 1-1.927.973c1.17-.852 2.585-1.713 3.952-2.679z" style="fill: rgb(255, 233, 163);"/>
    <path xmlns="http://www.w3.org/2000/svg" d="M58.888 177.982c.224.141.553.322 1.01.535-.344-.179-.671-.357-1.01-.535zM19.272 158.767c2.418 4.979 5.726 7.287 10.916 9.1 5.014 1.751 8.945 2.042 13.705-.097 1.486 1.156 3.237 2.895 4.694 3.661 1.019.528 2.419 1.281 3.899 1.964 1.504.638 3.014 1.346 4.261 1.767 2.479.871 3.635 1.164.544-.244-4.626-2.174-8.312-4.268-11.752-6.504-.412-.277-.82-.554-1.227-.833l.087-.039c-2.444-4.893-7.029-8.306-12.16-9.717a92.218 92.218 0 0 1-1.81-1.724 20.09 20.09 0 0 0 2.248-.127c-1.047-7.914-7.416-14.342-15-16.09-.188-.355-.372-.712-.566-1.063.178.351.363.705.545 1.057a17.984 17.984 0 0 0-5.882-.384c.668 5.498 3.045 8.757 7.363 12.16 2.696 2.124 5.159 3.525 7.966 4.125.025.037.046.07.074.109-.024-.036-.045-.072-.07-.108 1.024.218 2.103.315 3.247.317.362.354.723.705 1.097 1.074.212.196.304.361.371.528a19.967 19.967 0 0 0-3.759-.569l-.078-.099.064.099c-.124-.007-.249-.002-.374-.006a23.76 23.76 0 0 1-1.307-1.368c.227.263.439.541.665.773l.642.595c-2.858-.104-5.74.403-8.403 1.643zM13.963 132.726c2.976 4.624 5.992 7.302 11.397 8.494 1.985-9.798-4.661-20.13-14.4-22.388-1.16 5.414.031 9.27 3.003 13.894zM23.249 124.886c5.065-8.615 2.145-20.551-6.329-25.854-2.858 4.743-2.993 8.772-1.685 14.114 1.309 5.34 3.288 8.855 8.014 11.74z" style="fill: rgb(255, 233, 163);"/>
  </g>
  <g id="SvgjsG2241" featurekey="nameFeature-0" transform="matrix(1.0021779537200928, 0, 0, 1.0021779537200928, 55.008075714111335, 73.09737396240234)" fill="#ffa3ac">
    <path d="M1.4 40.08 c-0.4 0.04 -0.56 -1.2 -0.24 -1.28 c2.36 -0.6 4.16 -0.96 4.16 -3.92 l0 -17.92 c0 -2.68 -1.64 -3.36 -3.4 -3.8 c-0.32 -0.08 -0.16 -1.28 0.24 -1.24 c2.92 0.24 7.2 0.24 10.16 0.24 c3.64 0 6.36 -0.16 9.52 -0.24 c0.92 0 0.92 0.64 0.72 1.52 l-1 3.8 c-0.12 0.52 -1.08 0.52 -1.24 0 c-0.56 -1.88 -1.84 -3.2 -6.92 -3.2 c-3 0 -3.92 0.72 -3.92 2.92 l0 6.64 c0 1.04 0.52 1.24 1.32 1.24 l0.76 0 c3.56 0 6.24 -0.24 8 -1.92 c0.36 -0.36 1.2 -0.28 0.88 0.48 l-2.36 5.04 c-0.28 0.68 -0.84 0.6 -1.28 0 c-0.96 -1.24 -3.04 -1.72 -5.56 -1.72 l-0.44 0 c-0.8 0 -1.32 0.2 -1.32 1.24 l0 6.92 c0 2.32 1.04 3.08 4.48 3.08 c6.48 0 8.56 -2.6 9.56 -4.28 c0.32 -0.52 1.28 -0.4 1.28 0.36 c0 2.2 -1.68 6 -4.12 6.04 c-1.92 -0.12 -4.48 -0.24 -7.92 -0.24 c-3.68 0 -7.68 -0.12 -11.36 0.24 z M36.52 40.64 c-3.32 0 -8.12 -1.52 -7.68 -3.2 l0.36 -1.4 c1.08 -3.88 2.28 1.96 8.88 1.96 c3.48 0 5.44 -1.68 5.44 -4.2 c0 -2.08 -1.52 -3 -4.08 -4.52 l-4.48 -2.72 c-4.08 -2.48 -5.68 -4.24 -5.68 -7 c0 -4.76 4.56 -8.2 9.64 -8.2 c3.08 0 6.84 1.28 6.44 2.64 l-0.48 1.48 c-1.12 3.6 -2.16 -1.52 -7.64 -1.52 c-3.08 0 -4.64 1.6 -4.64 3.76 c0 1.76 1.08 2.8 3.76 4.44 l4.68 2.8 c4.08 2.44 5.72 4.28 5.72 7.04 c0 4.88 -4.88 8.64 -10.24 8.64 z M68.28 40.64 c-9.6 0 -17.32 -4.6 -17.32 -14.04 c0 -7.76 5.32 -15.24 16.28 -15.24 c4.8 0 8.52 1.4 8.08 2.68 l-0.52 1.56 c-1.24 3.6 -3.16 -1.28 -10.28 -1.28 c-6.24 0 -9.52 3.76 -9.52 10.08 c0 9.4 6.68 13.88 12.12 13.88 c2.84 0 4.28 -1.4 4.28 -3.88 l0 -0.76 c0 -3.04 -1.24 -4.04 -4.48 -4.52 c-0.52 -0.08 -0.16 -1.44 0.72 -1.44 l9.8 0 c1.08 0 0.56 1.32 0.12 1.44 c-1.36 0.36 -2.32 1.24 -2.32 3.8 l0 1.44 c0 1.08 0.04 1.84 0.8 3.16 c-2.4 1.28 -6.76 3.12 -7.76 3.12 z M81.48000000000002 40.08 c-0.4 0.04 -0.56 -1.2 -0.24 -1.28 c2.36 -0.6 4.16 -0.96 4.16 -3.92 l0 -18.04 c0 -2.8 -1.64 -3.36 -3.4 -3.6 c-0.32 -0.04 -0.08 -1.24 0.2 -1.24 l10.44 0 c0.32 0 0.52 1.2 0.24 1.24 c-1.72 0.2 -3.32 0.8 -3.32 3.6 l0 18.04 c0 2.32 1.04 3.08 4.48 3.08 c6.48 0 8.56 -2.6 9.56 -4.28 c0.32 -0.52 1.28 -0.4 1.28 0.36 c0 2.2 -1.68 6 -4.12 6.04 c-1.92 -0.12 -4.48 -0.24 -7.92 -0.24 c-3.68 0 -7.68 -0.12 -11.36 0.24 z M115.48000000000002 7.479999999999997 l3.72 -5.36 c0.72 -1.04 3.96 1.88 3 2.6 l-5.32 4.04 c-0.52 0.4 -1.8 -0.72 -1.4 -1.28 z M107.48000000000002 40.08 c-0.4 0.04 -0.56 -1.2 -0.24 -1.28 c2.36 -0.6 4.16 -0.96 4.16 -3.92 l0 -17.92 c0 -2.68 -1.64 -3.36 -3.4 -3.8 c-0.32 -0.08 -0.16 -1.28 0.24 -1.24 c2.92 0.24 7.2 0.24 10.16 0.24 c3.64 0 6.36 -0.16 9.52 -0.24 c0.92 0 0.92 0.64 0.72 1.52 l-1 3.8 c-0.12 0.52 -1.08 0.52 -1.24 0 c-0.56 -1.88 -1.84 -3.2 -6.92 -3.2 c-3 0 -3.92 0.72 -3.92 2.92 l0 6.64 c0 1.04 0.52 1.24 1.32 1.24 l0.76 0 c3.56 0 6.24 -0.24 8 -1.92 c0.36 -0.36 1.2 -0.28 0.88 0.48 l-2.36 5.04 c-0.28 0.68 -0.84 0.6 -1.28 0 c-0.96 -1.24 -3.04 -1.72 -5.56 -1.72 l-0.44 0 c-0.8 0 -1.32 0.2 -1.32 1.24 l0 6.92 c0 2.32 1.04 3.08 4.48 3.08 c6.48 0 8.56 -2.6 9.56 -4.28 c0.32 -0.52 1.28 -0.4 1.28 0.36 c0 2.2 -1.68 6 -4.12 6.04 c-1.92 -0.12 -4.48 -0.24 -7.92 -0.24 c-3.68 0 -7.68 -0.12 -11.36 0.24 z M142.60000000000002 40.64 c-3.32 0 -8.12 -1.52 -7.68 -3.2 l0.36 -1.4 c1.08 -3.88 2.28 1.96 8.88 1.96 c3.48 0 5.44 -1.68 5.44 -4.2 c0 -2.08 -1.52 -3 -4.08 -4.52 l-4.48 -2.72 c-4.08 -2.48 -5.68 -4.24 -5.68 -7 c0 -4.76 4.56 -8.2 9.64 -8.2 c3.08 0 6.84 1.28 6.44 2.64 l-0.48 1.48 c-1.12 3.6 -2.16 -1.52 -7.64 -1.52 c-3.08 0 -4.64 1.6 -4.64 3.76 c0 1.76 1.08 2.8 3.76 4.44 l4.68 2.8 c4.08 2.44 5.72 4.28 5.72 7.04 c0 4.88 -4.88 8.64 -10.24 8.64 z M156.84000000000003 40 c-0.32 0 -0.56 -1.2 -0.24 -1.24 c1.96 -0.28 3.36 -1 3.36 -3.6 l0 -18.32 c0 -2.6 -1.4 -3.32 -3.36 -3.6 c-0.32 -0.04 -0.08 -1.24 0.24 -1.24 l10.36 0 c0.32 0 0.56 1.2 0.24 1.24 c-1.72 0.24 -3.32 0.8 -3.32 3.6 l0 18.32 c0 2.8 1.6 3.36 3.32 3.6 c0.32 0.04 0.08 1.24 -0.24 1.24 l-10.36 0 z M200.20000000000005 38.72 c0.56 0.08 0.4 1.28 -0.08 1.28 l-9.96 0 c-0.52 0 -0.6 -1.2 -0.12 -1.28 c1.52 -0.24 3.04 -0.84 1.56 -4.32 l-0.6 -1.4 c-0.36 -0.92 -1.24 -0.96 -2.52 -0.96 l-8.32 0 c-1.2 0 -2.08 0.04 -2.44 0.96 l-0.56 1.4 c-1.48 3.56 0.04 4.04 2.04 4.32 c0.48 0.08 0.4 1.28 -0.12 1.28 l-8.44 0 c-0.52 0 -0.64 -1.2 -0.12 -1.28 c1.68 -0.24 2.64 -0.88 4.12 -4.32 l6.76 -15.4 c1.56 -3.52 2.04 -5.28 2.04 -6.8 c0 -0.24 2.84 -0.88 2.96 -0.6 l9.76 22.76 c1.48 3.48 2.44 4.12 4.04 4.36 z M188.48000000000005 30 c0.6 0 1.28 -0.08 1.04 -0.6 l-5.12 -12.16 l-5.12 12.16 c-0.24 0.52 0.4 0.6 1 0.6 l8.2 0 z" style="fill: rgb(112, 17, 71);"/>
  </g>
  <g id="SvgjsG2242" featurekey="nameFeature-1" transform="matrix(1.9269752502441408, 0, 0, 1.9269752502441408, 53.66754913330079, 102.10955810546876)" fill="#ffa3ac">
    <path d="M1.88 48.6 c-0.44 0 -0.88 -1.24 -0.56 -1.28 c1.76 -0.2 3.72 -2.36 3.72 -7.08 l0 -23.48 c0 -2.8 -1.64 -3.36 -3.36 -3.6 c-0.32 -0.04 -0.08 -1.16 0.24 -1.16 l10.36 0 c0.32 0 0.56 1.12 0.24 1.16 c-1.72 0.24 -3.32 0.8 -3.32 3.6 l0 23.48 c0 4.04 -4.72 8.36 -7.32 8.36 z M30.84 40.64 c-8.32 0 -14.36 -6.2 -14.36 -14.52 c0 -8.04 5.68 -14.76 14.44 -14.76 c8.36 0 14.36 6.2 14.36 14.48 c0 8.08 -5.64 14.8 -14.44 14.8 z M32.32 38.2 c3.68 0 8.84 -2.36 8.84 -10.28 c0 -8.28 -5.68 -14.12 -11.68 -14.12 c-3.72 0 -8.84 2.36 -8.84 10.24 c0 8.36 5.64 14.16 11.68 14.16 z M78.60000000000001 12 c0.44 0 0.6 1.2 0.08 1.28 c-1.64 0.24 -2.64 0.88 -4.12 4.32 l-6.76 15.6 c-1.44 3.36 -2.04 5.2 -2.04 6.8 c0 0.24 -2.8 0.88 -2.92 0.6 l-9.72 -22.96 c-1.44 -3.52 -2.6 -4.12 -4.12 -4.36 c-0.52 -0.08 -0.4 -1.28 0.12 -1.28 l9.92 0 c0.52 0 0.64 1.2 0.12 1.28 c-1.48 0.32 -2.96 0.84 -1.52 4.32 l7.16 17.32 l7.24 -17.32 c1.48 -3.52 -0.12 -3.92 -2 -4.32 c-0.52 -0.08 -0.4 -1.28 0.12 -1.28 l8.44 0 z M81.60000000000001 40.08 c-0.4 0.04 -0.56 -1.2 -0.24 -1.28 c2.36 -0.6 4.16 -0.96 4.16 -3.92 l0 -17.92 c0 -2.68 -1.64 -3.36 -3.4 -3.8 c-0.32 -0.08 -0.16 -1.28 0.24 -1.24 c2.92 0.24 7.2 0.24 10.16 0.24 c3.64 0 6.36 -0.16 9.52 -0.24 c0.92 0 0.92 0.64 0.72 1.52 l-1 3.8 c-0.12 0.52 -1.08 0.52 -1.24 0 c-0.56 -1.88 -1.84 -3.2 -6.92 -3.2 c-3 0 -3.92 0.72 -3.92 2.92 l0 6.64 c0 1.04 0.52 1.24 1.32 1.24 l0.76 0 c3.56 0 6.24 -0.24 8 -1.92 c0.36 -0.36 1.2 -0.28 0.88 0.48 l-2.36 5.04 c-0.28 0.68 -0.84 0.6 -1.28 0 c-0.96 -1.24 -3.04 -1.72 -5.56 -1.72 l-0.44 0 c-0.8 0 -1.32 0.2 -1.32 1.24 l0 6.92 c0 2.32 1.04 3.08 4.48 3.08 c6.48 0 8.56 -2.6 9.56 -4.28 c0.32 -0.52 1.28 -0.4 1.28 0.36 c0 2.2 -1.68 6 -4.12 6.04 c-1.92 -0.12 -4.48 -0.24 -7.92 -0.24 c-3.68 0 -7.68 -0.12 -11.36 0.24 z" style="fill: rgb(112, 17, 71);"/>
  </g>
  <g id="SvgjsG2243" featurekey="sloganFeature-0" transform="matrix(1.5848755836486816, 0, 0, 1.5848755836486816, 88.79855346679688, 207.40997314453128)" fill="#ffa3ac">
    <path d="M2.02 20 l0 -14.58 l1.54 0 l0 13.14 l6.92 0 l0 1.44 l-8.46 0 z M15.771999999999998 20 l0 -14.58 l1.54 0 l0 13.14 l6.92 0 l0 1.44 l-8.46 0 z M29.523999999999997 20 l0 -14.58 l9.12 0 l0 1.42 l-7.58 0 l0 5.04 l6.94 0 l0 1.42 l-6.94 0 l0 5.28 l7.66 0 l0 1.42 l-9.2 0 z M44.776 20 l0 -14.58 l1.54 0 l0 14.58 l-1.54 0 z M53.248000000000005 20 l0 -14.58 l4.34 0 c1.12 0 2.16 0.18 3.12 0.56 c0.96 0.36 1.78 0.88 2.44 1.52 c1.34 1.3 2.14 3.14 2.14 5.18 c0 1.06 -0.2 2.06 -0.6 2.98 s-0.96 1.68 -1.64 2.32 c-1.38 1.26 -3.34 2.02 -5.46 2.02 l-4.34 0 z M54.788000000000004 6.859999999999999 l0 11.7 l2.74 0 c1.22 0 2.3 -0.26 3.22 -0.76 c0.94 -0.5 1.68 -1.18 2.18 -2.06 c0.52 -0.88 0.78 -1.9 0.78 -3.02 c0 -1.66 -0.62 -3.14 -1.68 -4.2 c-1.04 -1.04 -2.66 -1.66 -4.5 -1.66 l-2.74 0 z M81.94000000000001 20 l-1.6 -3.72 l-7.94 0 l-1.6 3.72 l-1.56 0 l6.28 -14.58 l1.74 0 l6.3 14.58 l-1.62 0 z M79.76 14.879999999999999 l-3.4 -7.88 l-3.38 7.88 l6.78 0 z" style="fill: rgb(112, 17, 71);"/>
  </g>
</svg>